HIERARCHY
ROOT Hips
{
	OFFSET 0.000000 0.000000 0.000000
	CHANNELS 6 Xposition Yposition Zposition Zrotation Yrotation Xrotation 
	JOINT LHipJoint
	{
		OFFSET 0.000000 0.000000 0.000000
		CHANNELS 3 Zrotation Yrotation Xrotation
		JOINT LeftUpLeg
		{
			OFFSET 1.363060 -1.794630 0.839290
			CHANNELS 3 Zrotation Yrotation Xrotation
			JOINT LeftLeg
			{
				OFFSET 2.448110 -6.726130 0.000000
				CHANNELS 3 Zrotation Yrotation Xrotation
				JOINT LeftFoot
				{
					OFFSET 2.562200 -7.039590 0.000000
					CHANNELS 3 Zrotation Yrotation Xrotation
					JOINT LeftToeBase
					{
						OFFSET 0.157640 -0.433110 2.322550
						CHANNELS 3 Zrotation Yrotation Xrotation
						End Site
						{
							OFFSET 0.000000 0.000000 0.000000
						}
					}
				}
			}
		}
	}
	JOINT RHipJoint
	{
		OFFSET 0.000000 0.000000 0.000000
		CHANNELS 3 Zrotation Yrotation Xrotation
		JOINT RightUpLeg
		{
			OFFSET -1.305520 -1.794630 0.839290
			CHANNELS 3 Zrotation Yrotation Xrotation
			JOINT RightLeg
			{
				OFFSET -2.542530 -6.985550 0.000000
				CHANNELS 3 Zrotation Yrotation Xrotation
				JOINT RightFoot
				{
					OFFSET -2.568260 -7.056230 0.000000
					CHANNELS 3 Zrotation Yrotation Xrotation
					JOINT RightToeBase
					{
						OFFSET -0.164730 -0.452590 2.363150
						CHANNELS 3 Zrotation Yrotation Xrotation
						End Site
						{
							OFFSET 0.000000 0.000000 0.000000
						}
					}
				}
			}
		}
	}
	JOINT LowerBack
	{
		OFFSET 0.000000 0.000000 0.000000
		CHANNELS 3 Zrotation Yrotation Xrotation
		JOINT Spine
		{
			OFFSET 0.028270 2.035590 -0.193380
			CHANNELS 3 Zrotation Yrotation Xrotation
			JOINT Spine1
			{
				OFFSET 0.056720 2.048850 -0.042750
				CHANNELS 3 Zrotation Yrotation Xrotation
				JOINT Neck
				{
					OFFSET 0.000000 0.000000 0.000000
					CHANNELS 3 Zrotation Yrotation Xrotation
					JOINT Neck1
					{
						OFFSET -0.054170 1.746240 0.172020
						CHANNELS 3 Zrotation Yrotation Xrotation
						JOINT Head
						{
							OFFSET 0.104070 1.761360 -0.123970
							CHANNELS 3 Zrotation Yrotation Xrotation
							End Site
							{
								OFFSET 0.000000 0.000000 0.000000
							}
						}
					}
				}
				JOINT LeftShoulder
				{
					OFFSET 0.000000 0.000000 0.000000
					CHANNELS 3 Zrotation Yrotation Xrotation
					JOINT LeftArm
					{
						OFFSET 3.362410 1.200890 -0.311210
						CHANNELS 3 Zrotation Yrotation Xrotation
						JOINT LeftForeArm
						{
							OFFSET 4.983000 -0.000000 -0.000000
							CHANNELS 3 Zrotation Yrotation Xrotation
							JOINT LeftHand
							{
								OFFSET 3.483560 -0.000000 -0.000000
								CHANNELS 3 Zrotation Yrotation Xrotation
								JOINT LeftFingerBase
								{
									OFFSET 0.000000 0.000000 0.000000
									CHANNELS 3 Zrotation Yrotation Xrotation
									JOINT LeftHandIndex1
									{
										OFFSET 0.715260 -0.000000 -0.000000
										CHANNELS 3 Zrotation Yrotation Xrotation
										End Site
										{
											OFFSET 0.000000 0.000000 0.000000
										}
									}
								}
								JOINT LThumb
								{
									OFFSET 0.000000 0.000000 0.000000
									CHANNELS 3 Zrotation Yrotation Xrotation
									End Site
									{
										OFFSET 0.000000 0.000000 0.000000
									}
								}
							}
						}
					}
				}
				JOINT RightShoulder
				{
					OFFSET 0.000000 0.000000 0.000000
					CHANNELS 3 Zrotation Yrotation Xrotation
					JOINT RightArm
					{
						OFFSET -3.136600 1.374050 -0.404650
						CHANNELS 3 Zrotation Yrotation Xrotation
						JOINT RightForeArm
						{
							OFFSET -5.241900 -0.000000 -0.000000
							CHANNELS 3 Zrotation Yrotation Xrotation
							JOINT RightHand
							{
								OFFSET -3.444170 -0.000000 -0.000000
								CHANNELS 3 Zrotation Yrotation Xrotation
								JOINT RightFingerBase
								{
									OFFSET 0.000000 0.000000 0.000000
									CHANNELS 3 Zrotation Yrotation Xrotation
									JOINT RightHandIndex1
									{
										OFFSET -0.622530 -0.000000 -0.000000
										CHANNELS 3 Zrotation Yrotation Xrotation
										End Site
										{
											OFFSET 0.000000 0.000000 0.000000
										}
									}
								}
								JOINT RThumb
								{
									OFFSET 0.000000 0.000000 0.000000
									CHANNELS 3 Zrotation Yrotation Xrotation
									End Site
									{
										OFFSET 0.000000 0.000000 0.000000
									}
								}
							}
						}
					}
				}
			}
		}
	}
}
MOTION
Frames: 11
Frame Time: 0.008333
4.945481 17.063773 2.725784 -1.713812 -16.691518 11.961206 3.200087 1.688473 -0.336183 -29.710378 -5.840271 -28.497174 3.479294 12.756729 38.155129 -0.106865 3.750068 -10.469222 0.689300 5.307900 14.788900 -5.358854 -2.593519 0.818099 12.871726 17.240365 -54.819895 -2.371263 -11.769508 29.140590 -4.972442 -18.710471 46.151656 -0.039800 -1.287200 3.539500 1.255432 1.632639 4.424975 -1.070364 1.854590 -1.203443 -0.049814 1.370363 -5.681709 -1.633823 0.298249 -21.475091 0.765510 0.837386 36.120925 0.428800 0.068900 16.723800 -1.414994 -9.801464 2.616246 -25.814972 -26.198236 7.101110 96.841417 -56.638997 -67.813715 2.263935 -1.038250 -59.890862 25.991206 -28.435452 -11.846100 -7.125000 0.000000 0.000000 -2.387600 1.841900 2.311700 2.706431 10.532257 4.545118 29.032723 16.107507 20.467875 -123.435782 49.685303 -89.267452 -0.366351 -1.681656 -36.607125 -7.082107 -40.980685 3.713100 7.125000 0.000000 0.000000 39.311200 -66.019000 -21.347000 
4.940598 17.050139 2.725479 -1.714079 -16.778505 11.838319 3.200476 1.700673 -0.305202 -29.706764 -5.643218 -28.585908 3.528738 12.809087 38.346773 -0.051839 3.521419 -10.456738 0.722500 5.431500 15.143400 -5.364326 -2.592897 0.848073 12.990624 17.401366 -54.778778 -2.332361 -11.716689 29.044590 -5.093824 -18.241026 46.393734 -0.023200 -0.983700 2.703900 1.176344 1.621193 4.323437 -1.122291 1.832809 -0.753814 0.001781 1.367365 -5.614107 -1.412638 0.354387 -21.716290 0.557170 0.912446 36.035104 0.316100 0.099400 16.737600 -1.412713 -9.805720 2.590639 -26.115983 -26.237072 7.320712 96.818814 -56.613090 -67.804265 2.257707 -1.039737 -59.790483 25.916093 -28.112512 -11.675800 -7.125000 0.000000 0.000000 -2.389400 2.193400 2.298200 2.707055 10.541805 4.530535 29.296954 16.048967 20.698425 -123.355240 49.684958 -89.211198 -0.359306 -1.686202 -36.482949 -6.719194 -41.191223 3.495900 7.125000 0.000000 0.000000 39.964100 -66.059900 -21.787500 
4.937036 17.043220 2.715304 -1.889073 -16.644173 11.922865 3.222707 1.695979 -0.312443 -29.479318 -5.650637 -28.801647 3.572807 12.871875 38.527649 -0.008750 3.310600 -10.311888 0.770600 5.605200 15.643100 -5.359501 -2.587520 0.848286 13.179232 17.522041 -54.823564 -2.307801 -11.683639 28.954129 -5.140778 -18.154884 46.515546 -0.029400 -1.107000 3.043400 1.202181 1.561594 4.484424 -0.983329 1.768202 -0.809090 -0.017742 1.333917 -5.718969 -1.334043 0.404395 -21.771995 0.491325 0.986931 36.097588 0.285500 0.131500 16.777300 -1.444682 -9.802597 2.593638 -26.537586 -26.274527 7.779576 96.808072 -56.610055 -67.810417 2.252747 -1.027868 -59.780943 26.008581 -27.611811 -11.512500 -7.125000 0.000000 0.000000 -2.272100 2.697000 2.164400 2.709802 10.553077 4.527163 29.700030 16.152883 21.121518 -122.885125 49.827676 -88.800556 -0.358120 -1.695968 -36.066247 -6.603165 -41.765426 3.461600 7.125000 0.000000 0.000000 40.944900 -66.438800 -22.744600 
4.936833 17.043016 2.707368 -2.044192 -16.478800 12.005935 3.244122 1.687727 -0.338304 -29.298660 -5.685899 -28.939221 3.613515 12.931098 38.700565 0.007072 3.248802 -10.314518 0.765900 5.588700 15.595700 -5.358115 -2.582378 0.827092 13.411212 17.484369 -54.820335 -2.295487 -11.669132 28.907578 -5.103813 -18.111677 46.384159 -0.034300 -1.196000 3.288300 1.253697 1.496995 4.814386 -0.854278 1.700260 -1.161216 -0.059865 1.293655 -5.926807 -1.358716 0.443899 -21.637115 0.573086 1.037077 36.231699 0.330700 0.159800 16.805700 -1.492454 -9.787536 2.613306 -27.121803 -26.194873 8.454999 96.862125 -56.616292 -67.880021 2.246060 -1.013535 -59.734323 26.102092 -26.940080 -11.274700 -7.125000 0.000000 0.000000 -2.134500 3.380900 2.006300 2.726711 10.551242 4.543300 30.207234 16.176993 21.767414 -122.433567 49.967573 -88.425219 -0.379732 -1.696891 -35.556361 -6.852792 -41.926451 3.632300 7.125000 0.000000 0.000000 40.973300 -66.633700 -22.939300 
4.938664 17.036606 2.707368 -1.986710 -16.432275 11.867559 3.240558 1.693679 -0.329024 -29.377519 -5.586431 -28.900520 3.652735 12.968809 38.852854 0.029855 3.178407 -10.407223 0.757000 5.556700 15.503600 -5.371323 -2.579197 0.835690 13.588466 17.312222 -54.793864 -2.255314 -11.640395 28.913135 -5.230742 -17.183710 46.498065 -0.016300 -0.823500 2.263400 1.268064 1.473576 4.922393 -0.972803 1.662948 -1.049576 -0.074379 1.274590 -5.989226 -1.478693 0.375480 -21.756328 0.752257 0.928383 36.336584 0.411700 0.122900 16.892800 -1.500368 -9.785973 2.607860 -27.673090 -26.131091 8.998135 96.784409 -56.602927 -67.835625 2.244527 -1.025099 -59.659919 26.011149 -26.901200 -11.215600 -7.125000 0.000000 0.000000 -2.179700 3.444200 2.046300 2.751393 10.547290 4.542128 30.629668 16.155092 22.203014 -122.144011 50.032175 -88.215286 -0.406163 -1.684627 -35.195546 -6.974185 -41.512627 3.678200 7.125000 0.000000 0.000000 40.231100 -66.375800 -22.236500 
4.938054 17.028670 2.701365 -1.999517 -16.398583 11.737480 3.237271 1.704941 -0.298376 -29.352592 -5.504662 -28.916634 3.688503 13.004203 38.989611 0.063880 3.048691 -10.452768 0.693100 5.322000 14.829300 -5.374024 -2.587970 0.860237 13.742730 17.307198 -54.764642 -2.277325 -11.652563 28.913927 -5.153813 -17.638848 46.402235 -0.034600 -1.200400 3.300500 1.306184 1.456585 4.858663 -1.057219 1.633732 -0.636405 -0.098429 1.264421 -5.947844 -1.520195 0.301924 -22.004319 0.758898 0.834995 36.365802 0.406500 0.079700 16.977100 -1.500069 -9.797203 2.595072 -28.135157 -26.020637 9.319872 96.937733 -56.580577 -67.993468 2.237847 -1.044306 -59.527300 25.686011 -26.703266 -10.981400 -7.125000 0.000000 0.000000 -2.344700 3.718100 2.189500 2.760327 10.559188 4.500719 30.901190 16.418868 22.410758 -121.731531 50.132279 -87.873517 -0.402938 -1.685418 -35.008539 -6.731541 -41.705148 3.536500 7.125000 0.000000 0.000000 40.752600 -66.439800 -22.623500 
4.936833 17.024193 2.698109 -1.983772 -16.388454 11.728369 3.237834 1.708071 -0.283937 -29.354697 -5.508565 -29.016346 3.721528 13.046589 39.126582 0.081721 2.997386 -10.538325 0.543800 4.724700 13.125000 -5.378741 -2.595889 0.867841 13.780641 17.376867 -54.802477 -2.307950 -11.668763 28.886349 -4.988557 -18.415397 46.127954 -0.063600 -1.626900 4.475700 1.292867 1.440100 4.752954 -1.145800 1.601715 -0.453533 -0.091394 1.252411 -5.885092 -1.436206 0.348459 -21.958018 0.660785 0.908168 36.333812 0.359300 0.105400 16.955100 -1.512512 -9.808340 2.592568 -28.641909 -25.854006 9.672320 97.342249 -56.565172 -68.376426 2.228692 -1.056932 -59.347379 25.362130 -26.163171 -10.607700 -7.125000 0.000000 0.000000 -2.472600 4.348400 2.280200 2.774611 10.569756 4.470852 31.195391 16.646165 22.695512 -121.260019 50.250522 -87.479030 -0.403096 -1.686468 -34.883920 -6.686918 -41.891149 3.521300 7.125000 0.000000 0.000000 41.085800 -66.561000 -22.945200 
4.934696 17.013001 2.695667 -1.809221 -16.419238 11.696073 3.230623 1.705816 -0.280282 -29.526887 -5.519385 -29.107442 3.753229 13.087166 39.260037 0.082049 3.012613 -10.601955 0.463000 4.364600 12.104800 -5.403042 -2.586858 0.872272 13.673058 17.458837 -54.927159 -2.246936 -11.618812 28.848344 -5.211027 -17.259920 46.464636 -0.017600 -0.855700 2.351800 1.188817 1.449722 4.719272 -1.391223 1.593533 -0.394840 -0.032900 1.250569 -5.864280 -1.388140 0.374932 -21.809885 0.678584 0.924561 36.281162 0.362500 0.118400 16.897400 -1.511595 -9.823770 2.578956 -29.119241 -25.926539 10.091442 97.432246 -56.560035 -68.485059 2.238576 -1.075063 -59.212656 25.426628 -26.424397 -10.740800 -7.125000 0.000000 0.000000 -2.459200 4.079100 2.280200 2.805316 10.569403 4.475879 31.593725 16.549710 22.998318 -121.100976 50.275952 -87.358687 -0.417467 -1.685112 -34.748420 -6.862371 -41.842128 3.628300 7.125000 0.000000 0.000000 40.858200 -66.582200 -22.819300 
4.931237 16.999266 2.689766 -1.753937 -16.418137 11.659002 3.223569 1.705954 -0.270606 -29.566668 -5.495463 -29.179726 3.773547 13.112900 39.343203 0.079666 3.018896 -10.589826 0.455300 4.328900 12.003900 -5.417407 -2.579027 0.881399 13.682453 17.581940 -54.974861 -2.191573 -11.561255 28.762347 -5.429413 -16.467431 46.923137 -0.005000 -0.457200 1.256200 1.159083 1.455523 4.714246 -1.562152 1.589747 -0.241050 -0.016760 1.248656 -5.855770 -1.382384 0.323485 -21.838047 0.705816 0.833153 36.221454 0.360900 0.085300 16.877800 -1.509123 -9.838457 2.559840 -29.501962 -26.064943 10.448577 97.333439 -56.553580 -68.421480 2.250869 -1.090067 -59.032644 25.634395 -26.817826 -10.994800 -7.125000 0.000000 0.000000 -2.378500 3.643800 2.224500 2.830552 10.571216 4.482495 32.069800 16.413790 23.238916 -121.108287 50.253420 -87.374910 -0.428705 -1.688800 -34.517167 -6.871510 -41.981992 3.639900 7.125000 0.000000 0.000000 41.080500 -66.685300 -23.054600 
4.932254 17.000181 2.691699 -1.820090 -16.343280 11.669503 3.221276 1.710538 -0.253815 -29.500939 -5.488965 -29.197885 3.783187 13.123210 39.380238 0.086889 2.995132 -10.614301 0.500300 4.534300 12.585000 -5.407598 -2.588940 0.883013 13.848914 17.532394 -54.910144 -2.232941 -11.570683 28.652168 -5.215179 -17.876486 46.674912 -0.053400 -1.490700 4.100000 1.239437 1.429996 4.557848 -1.576437 1.554876 -0.056125 -0.060815 1.229681 -5.750636 -1.490265 0.251309 -21.829689 0.787326 0.732239 36.123629 0.397000 0.041400 16.833500 -1.517586 -9.849932 2.548352 -29.919621 -26.039224 10.840165 97.187848 -56.535679 -68.312142 2.251486 -1.101252 -58.878439 25.637684 -26.874772 -11.018700 -7.125000 0.000000 0.000000 -2.381100 3.589300 2.229400 2.844371 10.576160 4.476875 32.480803 16.376409 23.527781 -120.948272 50.275133 -87.254757 -0.441159 -1.688393 -34.340249 -6.942135 -41.986191 3.682800 7.125000 0.000000 0.000000 41.032600 -66.711500 -23.047600 
4.936222 17.013307 2.690885 -1.883158 -16.212717 11.639175 3.220099 1.720224 -0.227197 -29.440125 -5.510239 -29.155952 3.795354 13.131516 39.423227 0.101366 2.946732 -10.659864 0.536900 4.694700 13.039900 -5.393349 -2.603907 0.890279 14.044610 17.390409 -54.789816 -2.287664 -11.588899 28.547035 -4.867203 -19.494758 46.104748 -0.154600 -2.533700 6.983000 1.351291 1.372322 4.383862 -1.564871 1.480035 0.232597 -0.119328 1.190927 -5.635702 -1.531917 0.249193 -21.946067 0.837720 0.735898 36.138063 0.423300 0.043900 16.879800 -1.521230 -9.859461 2.534509 -30.346230 -26.030318 11.202890 96.946856 -56.511723 -68.114692 2.249072 -1.110393 -58.793611 25.591683 -26.896138 -11.006900 -7.125000 0.000000 0.000000 -2.408300 3.577500 2.255400 2.849965 10.590980 4.457984 32.774582 16.471657 23.824845 -120.650652 50.333860 -87.025328 -0.452865 -1.682770 -34.269868 -7.042882 -41.807141 3.733300 7.125000 0.000000 0.000000 40.667700 -66.616800 -22.729000 
